# xmcd
#
# Track frame offsets: 
#        150
#        25053
#        49061
#        70883
#        94346
#        116453
#        131767
#        142977
#        161350
#        175513
#        190402
#        209620
#        232047
#        247577
#        268946
#        285968
#        300898
#        318797
#
# Disc length: 4442 seconds
#
# Revision: 1
# Processed by: cddbd v1.5.2PL0 Copyright (c) Steve Scherf et al.
# Submitted via: ExactAudioCopy v1.3
#
DISCID=f0115812
DTITLE=Various Artist - The Jazz Album 2006
DYEAR=2006
DGENRE=Jazz
TTITLE0=Al Jarreau - Al Jarreau - All I Got
TTITLE1=Diana Krall - Diana Krall - Let's Face The Music And Dance
TTITLE2=Jamie Cullum - Jamie Cullum - Fascinating Rhythm
TTITLE3=Astrud Gilberto and Stan Getz - Astrud Gilberto and Stan Getz - Th
TTITLE3=e Girl From Ipanema
TTITLE4=Ella Fitzgerald and Louis Armstrong - Ella Fitzgerald and Louis Ar
TTITLE4=mstrong - Summertime
TTITLE5=George Benson - George Benson - Walk On By
TTITLE6=Dinah Washington - Dinah Washington - Cry Me A River
TTITLE7=Gwyneth Herbert - Gwyneth Herbert - Fever
TTITLE8=Peggy Lee  - Peggy Lee - Black Coffee
TTITLE9=Peter Grant - Peter Grant - You're The First, The Last, My Eve
TTITLE9=rything
TTITLE10=Blossom Dearie - Blossom Dearie - Manhattan
TTITLE11=John Scofield - John Scofield - You Don't Know Me
TTITLE12=Madeleine Peyroux - Madeleine Peyroux - You're Gonna Make Me 
TTITLE12=Lonesome When You Go
TTITLE13=Till Bronner - Till Bronner - High Falls
TTITLE14=Billie Holiday - Billie Holiday - Lady Sings The Blues
TTITLE15=Matt Dusk - Matt Dusk - Get Me To The Church On Time
TTITLE16=Jimmy Smyth - Jimmy Smyth - Main Title From The Carpetbaggers
TTITLE17=Terry Callier - Terry Callier - And I Love Her
EXTD=YEAR: 2006
EXTT0=
EXTT1=
EXTT2=
EXTT3=
EXTT4=
EXTT5=
EXTT6=
EXTT7=
EXTT8=
EXTT9=
EXTT10=
EXTT11=
EXTT12=
EXTT13=
EXTT14=
EXTT15=
EXTT16=
EXTT17=
PLAYORDER=
